<?xml version="1.0" standalone="no"?>
<!DOCTYPE svg PUBLIC "-//W3C//DTD SVG 20010904//EN"
 "http://www.w3.org/TR/2001/REC-SVG-20010904/DTD/svg10.dtd">
<svg version="1.0" xmlns="http://www.w3.org/2000/svg"
 width="200.000000pt" height="200.000000pt" viewBox="0 0 200.000000 200.000000"
 preserveAspectRatio="xMidYMid meet">
<metadata>
Created by potrace 1.10, written by Peter Selinger 2001-2011
</metadata>
<g transform="translate(0.000000,200.000000) scale(0.100000,-0.100000)"
fill="#000000" stroke="none">
<path d="M719 1371 c-17 -18 -29 -40 -29 -56 0 -35 50 -85 86 -85 26 0 26 -1
18 -42 -9 -48 -11 -130 -4 -168 4 -22 2 -25 -22 -22 -33 4 -78 -36 -78 -68 0
-27 43 -70 70 -70 29 0 74 46 66 68 -4 9 12 -3 36 -28 36 -38 43 -53 49 -100
l6 -55 2 53 c1 49 -2 58 -44 109 -25 30 -45 61 -45 68 0 19 30 40 52 37 11 -2
30 3 43 12 21 14 27 14 64 -1 28 -11 41 -22 41 -35 0 -29 54 -78 85 -78 16 0
38 12 56 29 38 38 38 74 0 112 -35 34 -77 38 -108 9 -20 -18 -24 -18 -61 -4
-27 11 -44 26 -53 47 -9 21 -24 34 -45 40 -38 11 -70 67 -54 97 17 33 91 88
138 104 90 31 192 11 262 -52 34 -30 43 -46 51 -87 5 -27 21 -76 36 -108 l27
-57 -32 -28 c-28 -24 -32 -34 -34 -87 l-3 -60 -61 -3 c-43 -2 -77 3 -113 17
-62 23 -66 19 -8 -10 25 -13 68 -24 108 -27 80 -5 93 5 102 79 5 41 14 60 39
86 l32 33 -27 57 c-15 32 -32 83 -37 113 -8 48 -16 61 -60 102 -109 101 -284
102 -391 2 l-26 -24 5 28 c3 23 -3 34 -28 55 -41 35 -74 34 -111 -2z m95 -33
c13 -19 14 -25 2 -43 -26 -40 -86 -27 -86 19 0 47 57 63 84 24z m16 -228 c-6
-15 -8 -38 -5 -52 4 -14 2 -28 -3 -32 -21 -13 -25 89 -5 144 4 11 7 9 14 -9 7
-17 6 -34 -1 -51z m78 -9 c21 -13 10 -46 -16 -49 -24 -4 -38 18 -28 43 6 17
24 19 44 6z m240 -73 c16 -16 15 -53 -2 -68 -21 -16 -56 -9 -72 15 -27 41 39
88 74 53z m-363 -98 c0 -18 -6 -26 -23 -28 -24 -4 -38 18 -28 44 3 9 15 14 28
12 17 -2 23 -10 23 -28z"/>
<path d="M152 784 c-16 -11 -22 -25 -22 -50 0 -63 13 -74 83 -74 36 0 68 5 75
12 7 7 12 34 12 60 0 43 -3 50 -26 58 -38 15 -97 12 -122 -6z m126 -56 l-3
-53 -39 -3 c-72 -6 -86 3 -86 52 0 23 3 46 7 49 3 4 33 7 65 7 l59 0 -3 -52z"/>
<path d="M320 725 c0 -37 4 -65 10 -65 6 0 10 18 10 40 0 34 4 41 25 46 41 10
55 -1 55 -46 0 -22 5 -40 10 -40 16 0 12 76 -5 90 -8 7 -31 10 -50 8 -29 -3
-35 -1 -35 14 0 10 -4 18 -10 18 -6 0 -10 -28 -10 -65z"/>
<path d="M460 780 c0 -5 5 -10 10 -10 6 0 10 5 10 10 0 6 -4 10 -10 10 -5 0
-10 -4 -10 -10z"/>
<path d="M610 772 c0 -14 -7 -17 -45 -14 -40 4 -46 1 -56 -22 -9 -20 -9 -32
-1 -51 11 -23 17 -25 64 -24 l53 2 0 63 c0 35 -3 64 -7 64 -5 0 -8 -8 -8 -18z
m-6 -44 c14 -23 -3 -52 -33 -56 -42 -6 -67 38 -39 66 17 17 58 11 72 -10z"/>
<path d="M930 725 c0 -37 4 -65 10 -65 6 0 10 11 10 25 0 25 2 26 58 23 52 -3
57 -5 56 -25 0 -13 3 -23 8 -23 5 0 8 15 6 33 -1 18 2 38 6 45 4 7 4 21 1 32
-6 18 -15 20 -81 20 l-74 0 0 -65z m138 28 c3 -22 0 -23 -57 -23 -59 0 -61 1
-61 25 0 25 2 26 58 23 50 -3 57 -6 60 -25z"/>
<path d="M1240 725 c0 -37 4 -65 10 -65 6 0 10 18 10 40 0 34 4 41 25 46 41
10 55 -1 55 -46 0 -22 5 -40 10 -40 16 0 12 76 -5 90 -8 7 -31 10 -50 8 -29
-3 -35 -1 -35 14 0 10 -4 18 -10 18 -6 0 -10 -28 -10 -65z"/>
<path d="M460 710 c0 -27 5 -50 10 -50 6 0 10 23 10 50 0 28 -4 50 -10 50 -5
0 -10 -22 -10 -50z"/>
<path d="M646 723 c9 -63 10 -64 64 -62 l50 2 0 49 c0 26 -4 48 -10 48 -5 0
-10 -18 -10 -40 0 -34 -4 -41 -25 -46 -34 -8 -55 11 -55 52 0 19 -4 34 -9 34
-6 0 -7 -17 -5 -37z"/>
<path d="M780 709 c0 -60 18 -65 22 -6 3 35 7 43 26 45 14 2 30 -4 38 -15 14
-17 15 -17 12 2 -3 17 -12 20 -51 21 l-47 2 0 -49z"/>
<path d="M1115 749 c-10 -16 4 -24 17 -11 19 19 56 14 68 -8 10 -19 9 -20 -14
-14 -43 10 -78 -3 -74 -29 3 -19 10 -22 56 -25 l52 -3 0 38 c0 22 -5 44 -12
51 -15 15 -84 16 -93 1z m83 -61 c-3 -7 -20 -13 -38 -13 -18 0 -35 6 -37 13
-3 8 8 12 37 12 29 0 40 -4 38 -12z"/>
<path d="M1380 709 c0 -27 5 -49 10 -49 6 0 10 18 10 40 0 28 5 43 16 47 29
11 49 -11 46 -51 -2 -20 1 -36 7 -36 5 0 11 16 13 36 6 71 68 74 68 4 0 -22 5
-40 11 -40 6 0 9 19 7 48 l-3 47 -92 1 -93 1 0 -48z"/>
<path d="M1597 745 c-7 -17 8 -21 18 -5 9 14 48 13 63 -2 21 -21 13 -26 -26
-21 -42 6 -69 -14 -58 -42 4 -12 18 -15 56 -14 l51 3 -3 45 -3 46 -46 3 c-35
2 -48 -1 -52 -13z m93 -55 c0 -12 -45 -24 -65 -16 -29 11 -15 26 25 26 22 0
40 -4 40 -10z"/>
<path d="M1725 709 c0 -27 3 -49 8 -49 4 0 7 15 7 34 0 39 19 59 52 54 19 -2
23 -10 26 -45 2 -24 8 -43 13 -43 6 0 9 21 7 48 l-3 47 -55 1 -55 2 0 -49z"/>
<path d="M100 608 c0 -5 405 -8 900 -8 495 0 900 3 900 8 0 4 -405 7 -900 7
-495 0 -900 -3 -900 -7z"/>
</g>
</svg>
